<svg version="1.1" id="Layer_1" xmlns="http://www.w3.org/2000/svg" xmlns:xlink="http://www.w3.org/1999/xlink" x="0px" y="0px"
	 width="100%" viewBox="0 0 997 1020" enable-background="new 0 0 997 1020" xml:space="preserve">
<path fill="#000000" opacity="1.000000" stroke="none" 
	d="
M556.000000,1021.000000 
	C370.666656,1021.000000 185.833328,1021.000000 1.000000,1021.000000 
	C1.000000,681.000000 1.000000,341.000000 1.000000,1.000000 
	C333.333344,1.000000 665.666687,1.000000 998.000000,1.000000 
	C998.000000,341.000000 998.000000,681.000000 998.000000,1021.000000 
	C850.833313,1021.000000 703.666687,1021.000000 556.000000,1021.000000 
M203.891113,674.375854 
	C203.536484,673.909546 203.181839,673.443298 202.756195,672.237915 
	C201.840317,670.105835 200.134064,667.972473 200.137589,665.841858 
	C200.159515,652.565735 200.564087,639.290161 200.989258,625.212280 
	C202.324661,619.997375 203.506821,614.737183 205.030426,609.577820 
	C207.489822,601.249695 210.967575,593.128174 212.467178,584.645691 
	C213.374207,579.515076 217.779541,574.177063 213.366058,568.385254 
	C212.640717,567.433533 213.699905,564.215271 214.880569,562.883240 
	C218.832764,558.424377 223.345108,554.466797 227.388809,550.082825 
	C230.536407,546.670349 233.304932,542.908203 236.197525,539.200806 
	C236.197525,539.200806 236.290298,539.259888 236.964462,539.465576 
	C237.394760,538.744446 237.825058,538.023376 238.292007,537.270569 
	C238.292007,537.270569 238.315994,537.228577 239.040100,537.362732 
	C242.415314,534.858032 242.212387,531.941589 240.247253,528.626526 
	C239.556549,527.461304 239.217133,525.989685 239.066650,524.619629 
	C238.470688,519.193542 239.269714,514.014465 242.260941,509.271942 
	C242.260941,509.271942 242.298279,509.246552 242.990692,509.420197 
	C244.688049,507.958954 246.385406,506.497711 248.015732,505.020264 
	C248.015732,505.020264 248.025772,505.088470 248.760864,504.996246 
	C254.860840,501.426239 261.760529,498.733612 264.019806,491.016327 
	C264.019806,491.016327 264.033539,491.083984 264.668488,490.847412 
	C267.805267,486.914703 270.942017,482.981995 274.009399,479.008057 
	C274.009399,479.008057 274.052124,479.076477 274.684326,478.842407 
	C277.816895,474.909393 280.949463,470.976379 284.011108,467.004852 
	C284.011108,467.004852 284.057648,467.070831 284.653931,466.867645 
	C285.480316,465.928284 286.306732,464.988922 287.768463,463.812225 
	C289.874298,460.885406 291.980103,457.958588 294.018372,455.015778 
	C294.018372,455.015778 294.038269,455.082245 294.671539,454.849426 
	C298.476685,450.242065 302.281830,445.634735 306.018097,441.018555 
	C306.018097,441.018555 306.025543,441.087616 306.603394,440.901398 
	C307.096863,440.281830 307.590363,439.662231 308.012817,439.007935 
	C308.012817,439.007935 308.055756,439.074310 308.687897,438.847717 
	C313.149384,433.584991 317.610870,428.322266 322.002441,423.001892 
	C322.002441,423.001892 322.060883,423.071106 322.690979,422.843994 
	C328.488525,416.241943 334.286041,409.639862 340.016724,403.019653 
	C340.016724,403.019653 340.029877,403.087677 340.606537,402.898499 
	C341.099457,402.278809 341.592377,401.659088 342.015259,401.010223 
	C342.015259,401.010223 342.052734,401.076202 342.684692,400.845947 
	C346.548401,397.652039 350.339233,394.364410 354.295044,391.289032 
	C358.812683,387.776855 363.477173,384.453522 368.011810,381.016327 
	C368.011810,381.016327 368.037750,381.084900 368.768219,381.002930 
	C373.621033,377.667664 378.629913,374.534851 383.286957,370.945557 
	C389.034821,366.515564 394.490082,361.705963 400.002441,357.003693 
	C400.002441,357.003693 400.057220,357.074615 400.713623,356.820496 
	C404.499359,353.567749 408.285095,350.314972 412.001221,347.001221 
	C412.001221,347.001221 412.061310,347.071625 412.713013,346.827301 
	C418.499481,341.571289 424.285950,336.315247 430.003418,331.004181 
	C430.003418,331.004181 430.056000,331.075165 430.734741,330.805176 
	C431.892914,330.321259 433.105499,329.936920 434.200989,329.338257 
	C447.176025,322.247559 460.141083,315.138458 473.091736,308.003326 
	C477.769653,305.426056 482.401978,302.766113 487.784790,300.026337 
	C496.810425,295.029510 505.879608,290.109222 514.846619,285.009308 
	C520.988220,281.516357 526.987610,277.773285 533.780762,274.026062 
	C542.412537,269.943176 550.963074,265.676239 559.694763,261.819550 
	C573.567200,255.692245 587.562744,249.843689 601.502075,243.867767 
	C610.979553,239.804688 621.414917,237.094818 629.663208,231.283585 
	C638.623169,224.970978 648.754822,225.164932 658.227905,222.112030 
	C662.168640,220.842056 666.448608,220.262100 670.602539,220.102783 
	C676.545593,219.874893 681.858948,218.781799 685.787415,213.844360 
	C686.441711,213.022003 687.554932,212.205704 688.548584,212.071396 
	C694.432434,211.276077 700.543335,211.398819 706.190247,209.823578 
	C712.039368,208.191940 717.836365,205.633102 723.294373,200.134201 
	C716.357361,197.688721 710.404724,195.590271 703.946594,193.313599 
	C705.834778,191.796677 707.501831,190.279572 709.340271,189.010834 
	C717.802612,183.171051 718.270447,182.116501 716.024109,172.468918 
	C719.675598,170.523849 723.399109,168.540390 728.319214,165.919540 
	C722.537537,160.086823 717.314819,154.609100 711.842224,149.393509 
	C709.445068,147.108902 707.654236,145.185593 707.887329,141.345596 
	C708.360779,133.545944 708.265503,125.688446 707.960327,117.872139 
	C707.709229,111.443565 708.502686,105.837212 714.936890,102.548454 
	C715.875366,102.068756 716.494324,100.964096 717.646057,99.739326 
	C714.051697,96.272377 710.621704,93.144386 707.406982,89.809006 
	C704.566650,86.862137 701.249451,84.053970 699.427124,80.521896 
	C696.663208,75.165024 695.133728,69.184509 692.844543,63.564751 
	C691.331055,59.849201 688.901489,57.680416 684.244629,57.844059 
	C673.764404,58.212337 663.212463,57.334297 652.785217,58.163521 
	C644.878723,58.792286 637.072449,61.082031 629.307312,62.982845 
	C620.628540,65.107330 612.044922,67.621201 603.422913,69.976822 
	C597.427917,71.614708 591.439941,73.278221 585.445557,74.918205 
	C576.824463,77.276802 568.204895,79.641289 559.576050,81.971169 
	C553.260315,83.676498 546.928406,85.322289 540.607666,87.009239 
	C534.445129,88.653954 528.282532,90.298470 522.129456,91.977966 
	C516.747437,93.447029 510.860321,94.034798 506.123535,96.675262 
	C498.730438,100.796486 492.081329,106.268936 485.191162,111.271049 
	C478.679901,115.998077 472.343842,120.971138 465.742798,125.566055 
	C464.340088,126.542473 461.968048,126.990120 460.312897,126.582878 
	C454.720642,125.206886 449.562805,124.961586 444.304565,128.126373 
	C437.205872,132.398895 429.753967,136.080948 422.507629,140.113358 
	C419.228333,141.938187 416.079041,143.996643 412.134705,145.983810 
	C410.076050,147.155807 408.042603,148.374924 405.954346,149.491638 
	C396.826508,154.372818 387.563202,159.015915 378.589020,164.163681 
	C373.084198,167.321365 367.178131,169.922256 363.478699,175.805862 
	C359.368225,182.343277 354.485443,188.400818 349.812012,194.571182 
	C349.229553,195.340210 347.902802,195.821930 346.868286,195.929245 
	C336.812744,196.972565 328.630432,201.531540 321.989594,208.988113 
	C321.989594,208.988113 321.954620,208.919159 321.238373,208.990433 
	C320.930084,209.057175 320.527893,209.021423 320.326965,209.205414 
	C310.096619,218.573456 298.929291,226.387939 285.612732,230.856064 
	C282.896027,231.767609 280.476166,233.563950 277.986908,234.985382 
	C277.986908,234.985382 277.956635,234.916672 277.381439,235.104889 
	C276.891846,235.726273 276.402252,236.347641 275.980591,236.983337 
	C275.980591,236.983337 275.961456,236.916595 275.303406,237.177353 
	C274.364807,237.770462 273.285034,238.219193 272.508820,238.978317 
	C260.959290,250.273422 249.449905,261.609589 237.999390,273.000000 
	C237.999390,273.000000 237.936447,272.930573 237.306992,273.157227 
	C226.834747,283.625061 216.271667,294.004456 205.946686,304.615601 
	C202.923508,307.722534 200.577255,311.488129 197.986755,314.982666 
	C197.986755,314.982666 197.963120,314.913788 197.388977,315.098511 
	C196.900192,315.713715 196.411407,316.328888 195.998779,317.000000 
	C195.998779,317.000000 195.928696,316.937042 195.297226,317.160522 
	C192.784729,320.340210 190.272232,323.519867 187.729630,326.732971 
	C187.729630,326.732971 187.691284,326.756531 187.012100,326.573822 
	C185.980499,328.035431 184.948898,329.497040 183.985306,330.987335 
	C183.985306,330.987335 183.953964,330.920532 183.322250,331.153168 
	C180.185562,335.093323 177.048889,339.033508 173.980331,342.984100 
	C173.980331,342.984100 173.964951,342.916962 173.328857,343.150146 
	C170.196121,347.078735 167.063385,351.007324 164.000000,355.000000 
	C164.000000,355.000000 163.932877,354.933716 163.293716,355.160339 
	C161.499451,357.767181 159.705170,360.374023 157.980423,362.984680 
	C157.980423,362.984680 157.970535,362.915741 157.329086,363.156342 
	C153.871704,367.541565 150.306198,371.847015 146.992096,376.337982 
	C144.467026,379.759705 142.261002,383.416809 139.980804,386.985443 
	C139.980804,386.985443 139.958664,386.919373 139.306702,387.163086 
	C136.425507,391.383423 133.485016,395.564728 130.675186,399.832062 
	C124.378593,409.394928 117.870697,418.833923 111.961044,428.632263 
	C105.059158,440.075745 98.296280,451.640594 92.222633,463.535522 
	C86.042824,475.638336 80.576256,488.121124 75.194473,500.608704 
	C72.644585,506.525238 71.033348,512.845093 68.971260,518.973511 
	C67.515579,523.299805 65.966095,527.594971 64.549812,531.933899 
	C62.643250,537.774902 60.532162,543.571472 59.044487,549.521118 
	C57.305321,556.476379 56.085857,563.565063 54.746052,570.615845 
	C53.428513,577.549500 51.987919,584.474670 51.068615,591.465027 
	C50.091526,598.894592 50.711205,606.682434 48.767544,613.804504 
	C45.218803,626.808044 48.292465,639.442322 49.138618,652.199890 
	C49.531231,658.119324 51.034592,663.962708 51.989170,669.847900 
	C53.021503,676.212524 54.168816,682.565063 54.958275,688.960815 
	C55.813984,695.893188 56.231594,702.878967 57.037506,709.818604 
	C57.207611,711.283447 58.233147,712.648865 59.010509,714.966492 
	C59.666035,722.534119 60.125751,730.126343 61.069958,737.657776 
	C61.467819,740.831238 62.887939,743.876648 63.982697,747.714783 
	C78.266571,776.792908 95.907799,803.715027 116.071594,829.517029 
	C116.376961,829.707336 116.682327,829.897583 116.987823,830.015564 
	C116.987823,830.015564 116.915619,830.017761 117.132896,830.706604 
	C117.644371,831.113525 118.096069,831.665039 118.676552,831.905151 
	C124.628120,834.366516 129.369110,837.724060 131.308456,844.512634 
	C132.217072,847.693176 134.932388,850.357727 136.853546,853.145203 
	C136.853546,853.145203 136.763901,853.214966 136.598587,853.983826 
	C139.548492,855.293335 142.477936,856.655640 145.483994,857.820190 
	C145.747650,857.922302 146.513641,856.727783 147.725098,855.839233 
	C149.299744,855.082336 150.874374,854.325500 152.449020,853.568665 
	C152.660233,853.907166 152.871445,854.245667 153.082672,854.584167 
	C152.343872,855.892883 151.605087,857.201538 150.542679,859.083496 
	C152.993744,859.644226 154.936356,860.088684 156.831558,860.522217 
	C157.266769,869.826904 157.738724,869.750427 166.548477,874.415588 
	C171.980438,877.292053 179.851135,877.188721 181.809998,885.201477 
	C181.913910,885.626465 183.180328,885.906555 183.938980,886.010498 
	C191.075119,886.988953 192.306686,886.168030 194.618942,878.796570 
	C201.565033,881.809631 208.280441,885.525330 215.470749,887.575684 
	C220.776337,889.088562 225.656189,896.454956 232.196930,890.006470 
	C232.282547,889.922058 232.538589,889.941040 232.683243,889.995911 
	C236.844986,891.573975 241.002625,893.162903 246.154709,895.129333 
	C238.655136,897.528381 232.719345,899.843811 226.177628,895.210205 
	C222.993210,892.954529 218.919617,894.129944 216.478607,899.156616 
	C220.136292,900.283752 223.482773,901.133667 226.696045,902.338745 
	C236.885178,906.159973 246.992813,910.199280 257.193970,913.987366 
	C264.444977,916.679871 271.737030,919.294128 279.124390,921.575378 
	C283.682983,922.983093 287.959778,925.652893 293.409668,922.618469 
	C295.955444,921.200989 301.709625,921.551086 303.488403,923.455261 
	C310.499207,930.960083 319.624329,931.374146 328.429443,931.806824 
	C336.671753,932.211670 345.005096,930.642151 353.305542,930.040955 
	C356.874146,929.782532 359.475861,930.994202 361.258820,934.545776 
	C364.103210,940.211914 369.798401,942.211182 376.094299,940.412476 
	C376.718842,940.234131 377.356781,940.023193 377.996857,939.990356 
	C390.962830,939.325073 403.937012,938.795471 416.893646,937.984497 
	C422.334808,937.643860 427.739288,936.717773 434.066437,936.015869 
	C437.893066,936.020264 441.724152,935.912964 445.544983,936.064026 
	C448.672394,936.187622 451.577972,936.273804 451.383698,930.883911 
	C454.518829,933.197327 456.627777,934.882202 458.874390,936.357483 
	C460.019897,937.109619 461.412170,937.960632 462.693542,937.961670 
	C496.130127,937.988281 529.566772,937.908936 563.855835,937.977661 
	C572.468872,938.071106 576.021240,933.307556 572.733093,926.161011 
	C575.636780,926.161011 578.564026,926.161011 580.863342,926.161011 
	C580.863342,927.684326 580.431152,929.273376 580.996643,930.327209 
	C581.470276,931.209961 583.150879,931.998230 584.225037,931.913574 
	C590.188965,931.443909 596.157532,930.871948 602.071106,929.980225 
	C606.106934,929.371765 610.055420,928.183594 614.042969,927.254578 
	C614.028809,926.693359 614.014648,926.132202 614.000427,925.570984 
	C607.805969,924.668640 601.611450,923.766357 595.416992,922.864075 
	C595.428772,922.158142 595.440491,921.452209 595.452271,920.746277 
	C600.036072,920.503845 604.710144,919.604492 609.176270,920.218140 
	C613.031616,920.747803 615.585999,919.895386 616.724121,918.226868 
	C622.166565,918.907349 626.811279,920.488342 631.092346,919.801819 
	C638.541504,918.607300 645.805176,916.141174 653.060730,913.926819 
	C655.161255,913.285828 656.968750,911.684570 658.910522,910.523499 
	C658.854736,910.016235 658.798889,909.508911 658.743042,909.001648 
	C653.537109,909.001648 648.324585,908.836792 643.127075,909.045837 
	C637.395264,909.276428 631.882568,909.494629 629.852966,902.396240 
	C629.668091,901.749573 628.729736,901.318359 628.285339,900.917114 
	C624.907288,902.710144 621.837708,905.598511 618.759888,905.607422 
	C615.870422,905.615784 612.972229,902.580627 609.675537,900.163269 
	C607.312195,900.041565 604.948853,899.919800 602.585510,899.798035 
	C604.321106,898.631104 606.163513,898.416077 607.946167,897.964844 
	C610.022644,897.439270 612.046814,896.707092 614.954224,896.023010 
	C619.167297,896.699158 622.741028,895.836365 625.941467,891.977417 
	C648.723999,891.982056 671.506592,891.960876 694.289001,892.009888 
	C699.813965,892.021790 705.769653,893.235413 707.757629,885.330261 
	C702.726624,880.664673 695.813477,882.341125 689.129822,881.490051 
	C694.877930,878.651550 698.936401,875.058228 696.639221,867.468994 
	C700.503479,868.855530 703.724548,869.500244 706.380188,871.089783 
	C709.919922,873.208679 711.481812,871.695862 712.752136,868.714294 
	C715.246033,862.860840 715.546387,862.663757 721.912354,863.562439 
	C720.067932,865.127014 718.425476,866.520325 716.782959,867.913635 
	C716.811340,868.462769 716.839722,869.011902 716.868042,869.561035 
	C725.246338,870.329102 733.624634,871.097229 742.927490,872.005554 
	C747.260559,872.013550 751.602966,872.177795 755.920105,871.919067 
	C756.992371,871.854736 758.510376,870.596558 758.852234,869.565247 
	C759.153503,868.656128 758.427002,866.898804 757.585999,866.206909 
	C754.005432,863.261108 750.213867,860.571838 746.499268,857.788879 
	C746.582275,857.121460 746.665222,856.453979 746.748230,855.786499 
	C749.011780,855.195496 751.497742,853.690002 753.499146,854.176758 
	C760.914307,855.980286 767.183777,852.542053 773.839600,850.684875 
	C779.831787,849.012817 785.937927,847.740051 791.903564,845.984436 
	C797.978271,844.196899 804.354431,842.808899 809.870056,839.875916 
	C821.382263,833.754089 832.619934,827.356934 845.306396,823.626831 
	C849.041077,822.528809 855.169006,823.905518 856.509338,817.222717 
	C857.465149,812.456726 860.616089,810.457764 865.503540,812.997681 
	C866.183350,813.350952 867.078247,813.264282 867.847290,813.476501 
	C873.796021,815.117615 874.882874,814.248169 875.080811,808.305115 
	C875.181641,805.277527 874.716309,801.170715 876.421875,799.452515 
	C881.906860,793.926514 888.145020,789.103821 894.365295,784.367981 
	C898.348999,781.334839 902.813599,778.933228 907.708862,775.840088 
	C905.367371,774.067261 903.218384,772.667725 901.368469,770.946655 
	C900.395691,770.041687 899.151489,768.370483 899.401367,767.397400 
	C900.348389,763.708435 901.657532,760.075989 903.196838,756.583496 
	C905.996338,750.231812 905.947876,750.012329 899.258850,750.005005 
	C895.295593,750.000610 891.332336,750.004150 887.369080,750.004150 
	C887.334167,749.510437 887.299194,749.016724 887.264282,748.523010 
	C888.868652,746.698303 890.473083,744.873657 892.010437,743.012085 
	C892.010437,743.012085 892.044434,743.080688 892.762512,743.010925 
	C895.336304,741.070557 897.817688,738.989990 900.502930,737.218628 
	C906.269592,733.414612 906.549866,732.674683 900.987854,728.661743 
	C898.394409,726.790588 898.550110,724.943420 899.624817,722.994568 
	C901.756531,719.128967 901.697632,716.877319 896.508545,716.751038 
	C895.348206,716.722778 894.208374,715.849548 893.029297,715.352783 
	C893.029297,714.248291 893.110352,713.245728 893.016296,712.259827 
	C892.376343,705.552246 890.641174,703.984680 883.949158,703.985657 
	C875.123718,703.986938 866.294983,703.850037 857.474487,704.058472 
	C854.307556,704.133362 852.461487,703.381042 850.868164,700.380981 
	C849.982910,698.714294 847.202148,697.376465 845.138916,697.152893 
	C840.695190,696.671265 836.148987,696.784119 831.670837,697.066833 
	C826.996826,697.361938 822.277283,697.794312 817.714966,698.793762 
	C811.179626,700.225464 804.782471,702.278442 798.301636,703.971558 
	C789.196167,706.350403 780.016846,708.464600 770.977173,711.067322 
	C767.791565,711.984619 765.117188,712.897400 762.477051,710.070007 
	C761.981445,709.539246 760.532166,709.491516 759.689392,709.754333 
	C749.953125,712.791260 740.258057,715.959595 730.531311,719.027649 
	C727.244263,720.064392 723.208923,722.580322 720.708069,721.543518 
	C712.877808,718.297241 704.965698,719.567688 697.316711,720.205811 
	C682.659119,721.428650 668.141357,724.233337 653.514587,725.946350 
	C639.602722,727.575684 625.610840,728.509583 611.681274,730.002808 
	C594.230896,731.873352 576.827759,734.198425 559.366211,735.947144 
	C548.760681,737.009338 538.084045,737.365540 527.437988,738.016724 
	C516.294006,738.698425 505.155090,739.731201 494.001862,739.930725 
	C477.693909,740.222534 461.375153,739.908325 444.615448,739.098328 
	C435.375793,738.718628 426.137756,738.292297 416.896149,737.968933 
	C397.414520,737.287231 377.921234,736.858765 358.453552,735.902832 
	C351.538116,735.563232 344.639740,734.223083 337.812042,732.926575 
	C330.431091,731.524963 323.112701,729.756653 315.822266,727.928040 
	C310.441864,726.578369 305.157379,724.849548 299.817291,723.335022 
	C288.769775,720.201782 277.717072,717.086853 266.659546,713.989136 
	C261.579163,712.565918 256.279083,711.682251 251.461700,709.647095 
	C247.996841,708.183350 245.166214,705.218323 242.005249,702.993286 
	C242.005249,702.993286 242.074387,702.944153 241.849228,702.308044 
	C238.161072,699.530823 234.555481,696.632812 230.748154,694.029968 
	C228.980042,692.821106 226.658249,692.429871 224.868088,691.244263 
	C219.853989,687.923462 214.986038,684.381958 210.001511,680.997559 
	C210.001511,680.997559 210.070633,680.937561 209.852737,680.312500 
	C207.917892,678.515442 205.983063,676.718384 204.006027,674.991516 
	C204.006027,674.991516 204.073349,674.944824 203.891113,674.375854 
M78.768913,784.724426 
	C74.219635,777.158325 69.670357,769.592224 64.861176,761.593872 
	C63.270889,769.112244 80.844475,796.972778 88.334114,799.362427 
	C85.105095,794.598206 82.005272,790.024597 78.768913,784.724426 
M103.734535,821.612244 
	C102.841309,820.397095 101.948082,819.182007 100.278458,816.910645 
	C99.718277,819.294495 98.602760,821.699097 99.142532,822.158447 
	C101.245209,823.947510 103.872643,825.119934 106.304886,826.521729 
	C106.466583,826.230835 106.628288,825.940002 106.789993,825.649109 
	C105.935631,824.489441 105.081268,823.329712 103.734535,821.612244 
z"/>
<path fill="#F44236" opacity="1.000000" stroke="none" 
	d="
M116.158424,828.961365 
	C95.907799,803.715027 78.266571,776.792908 63.945206,746.916016 
	C62.580170,735.416870 61.252632,724.716492 59.985535,713.579224 
	C58.157635,699.460999 56.194901,685.789368 54.402550,672.095459 
	C52.719158,659.234070 49.950954,646.357788 49.862766,633.472961 
	C49.559364,589.146301 59.689156,546.731262 75.566475,505.561188 
	C91.102844,465.275238 112.586533,428.236755 137.078064,392.833008 
	C138.311127,391.050537 139.010696,388.899048 139.958664,386.919373 
	C139.958664,386.919373 139.980804,386.985443 140.286789,387.109497 
	C145.920624,380.266693 151.277664,373.321716 156.541977,366.307129 
	C157.256271,365.355377 157.505814,364.054810 157.970551,362.915741 
	C157.970535,362.915741 157.980423,362.984680 158.294800,363.069153 
	C160.383743,360.413666 162.158310,357.673706 163.932877,354.933716 
	C163.932877,354.933716 164.000000,355.000000 164.248993,355.244171 
	C167.653641,351.297882 170.809296,347.107422 173.964951,342.916962 
	C173.964951,342.916962 173.980331,342.984100 174.288193,343.093933 
	C177.715363,339.109375 180.834656,335.014954 183.953949,330.920532 
	C183.953964,330.920532 183.985306,330.987335 184.288696,331.156677 
	C185.625153,329.802826 186.658218,328.279663 187.691284,326.756531 
	C187.691284,326.756531 187.729630,326.732971 188.072998,326.856628 
	C190.920486,323.632538 193.424591,320.284790 195.928680,316.937042 
	C195.928696,316.937042 195.998779,317.000000 196.306564,317.225220 
	C197.063950,316.604858 197.513535,315.759338 197.963120,314.913788 
	C197.963120,314.913788 197.986755,314.982666 198.271729,315.176270 
	C211.605179,301.907410 224.661346,288.452362 237.664078,274.945831 
	C238.043396,274.551849 237.858353,273.614563 237.936447,272.930573 
	C237.936447,272.930573 237.999390,273.000000 238.249512,273.245239 
	C238.803680,273.364319 239.178375,273.312775 239.401703,273.101379 
	C251.518723,261.630524 263.629059,250.152557 275.696594,238.629730 
	C276.027985,238.313278 275.883850,237.498825 275.961487,236.916595 
	C275.961456,236.916595 275.980591,236.983337 276.327972,237.123123 
	C277.102448,236.480835 277.529541,235.698746 277.956635,234.916672 
	C277.956635,234.916672 277.986908,234.985382 278.308533,235.191345 
	C279.865631,234.925568 281.077240,234.374588 282.340210,233.994202 
	C296.566925,229.709335 308.863220,222.105942 319.781647,212.167221 
	C320.716736,211.316055 321.240021,210.012543 321.954620,208.919159 
	C321.954620,208.919159 321.989594,208.988113 322.278198,209.192474 
	C328.754486,205.930542 334.600494,200.787445 341.219635,199.438751 
	C348.832428,197.887619 352.935577,193.760788 356.651947,188.038635 
	C357.102295,187.345245 357.634583,186.705643 358.114655,186.030945 
	C364.522278,177.024750 371.842560,169.378418 382.254150,164.508911 
	C393.181335,159.398300 403.407349,152.788544 414.294495,146.806030 
	C425.460602,140.886215 436.201660,134.858017 447.141632,129.215469 
	C449.375092,128.063522 452.537994,127.578529 454.955627,128.143021 
	C460.936798,129.539566 465.714081,128.361053 470.658478,124.613808 
	C481.526062,116.377449 492.776031,108.640198 503.978516,100.855537 
	C506.242584,99.282249 508.874298,97.991753 511.526672,97.261101 
	C543.585693,88.429779 575.828186,80.229439 607.717712,70.829605 
	C632.006897,63.670086 656.327271,58.806385 681.818787,60.485020 
	C687.446533,60.855610 690.658630,61.910221 692.091370,67.608475 
	C695.205017,79.992416 702.277100,89.813705 712.461487,97.454178 
	C713.214417,98.019051 713.757263,98.863953 713.674500,98.771576 
	C710.897095,103.380035 706.654297,107.337662 706.285461,111.628281 
	C705.305176,123.032829 705.939453,134.581879 706.119263,146.070511 
	C706.135071,147.079758 707.410583,148.186279 708.296814,149.045792 
	C713.798950,154.382156 719.357117,159.660858 725.405151,165.444992 
	C722.523682,166.812454 720.959229,167.813950 719.248169,168.317947 
	C714.282654,169.780441 712.468079,172.561249 714.776367,177.530350 
	C716.032471,180.234451 714.941101,182.130249 712.645813,183.886047 
	C708.687744,186.913757 704.955872,190.237167 700.440918,194.011871 
	C707.394348,196.582306 713.041443,198.669830 718.987732,200.867950 
	C713.099060,205.919434 705.009888,209.502960 694.611328,210.269974 
	C688.830017,210.696426 683.895264,211.245850 679.833374,216.028580 
	C678.555359,217.533371 675.221619,217.326981 672.813660,217.831726 
	C656.810059,221.186417 639.935059,221.355652 625.611206,230.855743 
	C624.105530,231.854340 622.319214,232.440445 620.640564,233.165817 
	C596.058838,243.788208 571.440674,254.327408 546.916504,265.080994 
	C542.084351,267.199829 537.611023,270.136963 532.608887,272.773682 
	C517.113770,281.412598 501.981995,289.974548 486.502319,298.663391 
	C468.862366,308.080048 451.544952,317.323425 434.317780,326.732086 
	C432.614563,327.662292 431.463409,329.603302 430.056000,331.075165 
	C430.056000,331.075165 430.003418,331.004181 429.739655,330.776459 
	C423.677887,335.505005 417.868591,340.448273 412.116608,345.457397 
	C411.839661,345.698608 412.068176,346.520264 412.061310,347.071625 
	C412.061310,347.071625 412.001221,347.001221 411.742676,346.763580 
	C407.675171,350.042175 403.866211,353.558411 400.057251,357.074646 
	C400.057220,357.074615 400.002441,357.003693 399.738831,356.769897 
	C389.011902,364.278687 378.544800,372.016174 368.111145,379.798492 
	C367.889923,379.963501 368.053619,380.644562 368.037781,381.084900 
	C368.037750,381.084900 368.011810,381.016327 367.719055,380.814331 
	C360.917175,384.827545 354.220398,388.788300 347.990906,393.382721 
	C345.483856,395.231750 344.001465,398.470123 342.052734,401.076202 
	C342.052734,401.076202 342.015259,401.010223 341.686157,400.850555 
	C340.914673,401.489838 340.472290,402.288757 340.029907,403.087677 
	C340.029877,403.087677 340.016724,403.019653 339.715637,402.864685 
	C333.610504,408.942444 327.794800,415.164551 322.039062,421.441650 
	C321.771820,421.733093 322.041351,422.516724 322.060883,423.071106 
	C322.060883,423.071106 322.002441,423.001892 321.741089,422.775696 
	C318.044434,426.240234 314.506836,429.843079 311.223602,433.664429 
	C309.883759,435.223846 309.095154,437.256805 308.055786,439.074310 
	C308.055756,439.074310 308.012817,439.007935 307.690735,438.837402 
	C306.920959,439.473816 306.473267,440.280701 306.025543,441.087616 
	C306.025543,441.087616 306.018097,441.018555 305.710449,440.904114 
	C301.614624,445.553864 297.826477,450.318054 294.038269,455.082275 
	C294.038269,455.082245 294.018372,455.015778 293.713379,454.887634 
	C290.819244,457.788910 288.230133,460.818298 285.348022,464.029968 
	C284.722565,465.165070 284.390106,466.117950 284.057648,467.070831 
	C284.057648,467.070831 284.011108,467.004852 283.722351,466.833862 
	C280.306427,470.800751 277.179260,474.938629 274.052124,479.076477 
	C274.052124,479.076477 274.009399,479.008057 273.729919,478.811707 
	C270.311432,482.771545 267.172485,486.927765 264.033539,491.083984 
	C264.033539,491.083984 264.019806,491.016327 263.711609,490.908569 
	C258.582855,494.910797 253.745087,499.001007 248.967529,503.160370 
	C248.470673,503.592957 248.331116,504.435913 248.025772,505.088470 
	C248.025772,505.088470 248.015732,505.020264 247.705963,504.853943 
	C245.696884,506.207245 243.997574,507.726898 242.298279,509.246552 
	C242.298279,509.246552 242.260941,509.271942 241.905487,509.145538 
	C235.914429,514.414185 235.356750,521.044739 237.876480,527.803650 
	C239.116959,531.131104 239.942398,533.990723 238.315994,537.228577 
	C238.315994,537.228577 238.292007,537.270569 237.923035,537.140259 
	C237.132812,537.759949 236.711563,538.509888 236.290314,539.259888 
	C236.290298,539.259888 236.197525,539.200806 235.892090,539.108643 
	C228.418655,546.175171 221.346466,553.433899 214.033112,560.440857 
	C211.295074,563.064148 210.595413,565.492004 211.636215,569.245239 
	C212.467316,572.242249 212.426361,575.820007 211.664963,578.862793 
	C207.717941,594.636353 203.415268,610.320984 199.099518,626.434448 
	C198.643219,628.773621 198.064514,630.712585 198.047806,632.656494 
	C197.956741,643.247864 197.781143,653.848328 198.150940,664.427551 
	C198.251022,667.290833 200.145554,670.091370 201.371033,673.233337 
	C202.374863,674.012268 203.224106,674.478516 204.073349,674.944824 
	C204.073349,674.944824 204.006027,674.991516 203.816895,675.282837 
	C205.775391,677.361938 207.923019,679.149719 210.070633,680.937561 
	C210.070633,680.937561 210.001511,680.997559 209.777740,681.259399 
	C218.100113,691.966309 231.288986,695.546143 241.699127,703.236328 
	C241.733459,703.261780 241.945389,703.046814 242.074371,702.944153 
	C242.074387,702.944153 242.005249,702.993286 241.807373,703.270386 
	C245.623016,708.114380 250.324814,711.438293 256.375885,712.988525 
	C267.790100,715.912720 279.119629,719.168152 290.480225,722.301025 
	C304.560333,726.183838 318.460815,730.965454 332.748016,733.801392 
	C369.793671,741.154663 407.507385,739.657837 445.420105,741.072388 
	C468.825104,742.970337 491.754517,741.908264 514.701294,740.197021 
	C533.459229,738.798218 552.326050,738.613342 571.024231,736.708679 
	C610.918701,732.644958 650.728699,727.756348 690.587952,723.338196 
	C700.910278,722.194092 711.288269,719.348755 721.634216,723.715454 
	C722.863708,724.234436 724.832764,723.244629 726.381653,722.724182 
	C736.637146,719.278198 746.856079,715.722900 757.130005,712.333801 
	C758.576050,711.856873 760.263977,711.952393 761.828247,712.027222 
	C765.318604,712.194397 768.906067,713.166870 772.264038,712.627869 
	C777.822571,711.735596 783.198242,709.765381 788.709229,708.504028 
	C806.781067,704.367798 824.269287,696.730225 843.405579,698.971436 
	C845.673035,699.237000 847.752197,701.126892 849.914062,702.272522 
	C852.223450,703.496399 854.484009,705.684509 856.841309,705.791565 
	C865.985840,706.206787 875.163391,706.097107 884.322266,705.895691 
	C888.036560,705.814087 890.199890,707.093018 890.253052,710.828552 
	C890.329346,716.193481 892.588318,719.314758 899.239380,719.034302 
	C894.286316,725.741638 898.271362,729.596313 903.075195,733.196777 
	C900.954407,734.757324 899.253052,735.791260 897.820374,737.115784 
	C895.791199,738.991760 893.960205,741.082031 892.044434,743.080688 
	C892.044434,743.080688 892.010437,743.012085 891.723877,742.814880 
	C890.622498,743.165344 889.585327,743.549377 889.037537,744.293640 
	C887.754700,746.036621 886.706299,747.952271 885.562988,749.797974 
	C887.697144,750.453308 889.797668,751.482056 891.973328,751.678772 
	C895.478638,751.995728 899.033508,751.763916 903.165588,751.763916 
	C901.926025,754.754456 901.001221,756.693420 900.311584,758.712708 
	C899.024414,762.481567 896.851807,766.360901 897.083191,770.067200 
	C897.204956,772.018005 901.626770,773.700378 903.484924,775.051575 
	C895.209351,781.558594 886.895874,788.345886 878.301331,794.756348 
	C873.418396,798.398438 872.012695,803.026917 872.651245,808.707397 
	C872.755676,809.636597 872.665955,810.587585 872.665955,811.862183 
	C870.206360,811.539734 868.105286,811.252197 866.001038,810.990417 
	C857.976074,809.992188 858.076843,810.052124 854.113892,817.103394 
	C853.369568,818.427673 851.585022,819.424622 850.064087,820.011780 
	C842.479065,822.939880 834.654663,825.303711 827.236389,828.592346 
	C819.663147,831.949646 812.799011,837.142395 805.028503,839.767700 
	C790.570129,844.652649 775.692871,848.307373 760.950684,852.330200 
	C759.121826,852.829285 756.807068,853.052979 755.141968,852.369690 
	C749.717468,850.143860 746.948120,853.324219 743.505188,857.424377 
	C747.878418,861.409912 752.061768,865.222351 756.993347,869.716797 
	C752.389221,869.961426 748.659424,870.159607 744.715454,870.287415 
	C744.501282,870.217041 744.058289,870.301636 743.723938,870.201172 
	C742.927612,870.131042 742.465637,870.161377 741.600098,870.093811 
	C734.682495,869.313843 728.168518,868.631714 721.803467,867.965210 
	C722.784058,865.551941 723.567932,863.622864 724.440430,861.475769 
	C714.409241,860.306824 714.409241,860.306824 709.412231,869.669800 
	C705.765869,868.538452 702.194702,867.262573 698.532532,866.353149 
	C696.087219,865.745911 693.908630,866.575867 694.417786,869.592163 
	C695.323975,874.960938 692.422485,877.445068 688.061829,879.279785 
	C686.501404,879.936340 685.186157,881.175720 683.071228,882.618164 
	C690.819458,883.495667 697.578369,884.261108 704.337280,885.026550 
	C704.467163,885.843018 704.597107,886.659485 704.727051,887.475891 
	C702.470886,888.417419 700.230835,890.125549 697.955994,890.173096 
	C685.321655,890.437744 672.678772,890.253479 660.039124,890.311646 
	C648.408813,890.365173 636.778992,890.531006 624.801147,890.580322 
	C620.969910,892.029724 617.486572,893.546204 613.601624,895.055969 
	C612.425903,895.251160 611.651794,895.453064 610.655029,895.568420 
	C609.995972,895.656677 609.559509,895.831543 608.692627,896.014160 
	C590.714172,899.182739 573.166077,902.343384 554.356873,905.731201 
	C567.610229,908.326660 579.318054,910.619507 591.292725,913.106323 
	C592.403320,913.454773 593.247192,913.609314 594.148926,913.834351 
	C594.206848,913.904907 594.378235,913.842224 594.479248,913.979431 
	C595.002563,914.053650 595.424805,913.990662 595.882935,913.954102 
	C595.918884,913.980530 595.968628,913.906494 596.309570,913.894470 
	C597.387268,912.237488 598.123962,910.592529 598.912964,908.927612 
	C598.965210,908.907715 598.918457,908.806091 599.140015,908.589233 
	C599.796936,907.207947 600.232300,906.043518 600.774719,904.800781 
	C600.881775,904.722412 600.898254,904.457581 601.167847,904.187683 
	C604.599854,902.015137 607.688904,900.212585 610.070068,905.039062 
	C610.399292,905.706421 611.706604,905.944458 612.601379,906.270874 
	C618.163452,908.299500 623.208740,907.309021 627.925415,902.514771 
	C630.221008,910.393677 635.498840,911.610046 641.889343,910.924194 
	C644.334351,910.661743 646.831116,910.881470 649.304260,910.881470 
	C644.316284,913.632751 639.116882,914.776428 634.297180,916.816956 
	C629.097290,919.018433 624.538452,919.142090 619.803589,915.820129 
	C618.873840,915.167847 616.118530,915.410339 615.602783,916.178528 
	C613.642944,919.097473 611.254150,918.575012 608.608826,917.919556 
	C601.944885,916.268433 596.218872,917.527405 591.331482,923.820374 
	C595.129150,924.724487 598.384277,925.499451 601.639465,926.274414 
	C601.624878,926.607056 601.610229,926.939697 601.595642,927.272339 
	C595.482300,927.907959 589.369019,928.543579 582.957947,929.210144 
	C583.466370,927.312683 583.813721,926.016296 584.134766,924.818115 
	C578.689819,924.818115 573.612427,924.818115 568.989075,924.818115 
	C569.948669,927.415894 571.862183,929.996155 571.233032,931.540894 
	C570.417908,933.542053 567.630554,934.798035 565.572449,936.198608 
	C564.966492,936.611023 563.954651,936.427063 562.667175,936.382690 
	C530.241516,936.206543 498.276886,936.242004 466.314575,935.987183 
	C463.492310,935.964783 460.518463,934.352356 457.914917,932.929565 
	C454.938660,931.303162 452.618652,928.110168 448.197968,930.017151 
	C448.197968,931.217224 448.197968,932.549988 448.197968,933.679932 
	C442.873779,934.138794 437.937317,934.564209 432.533081,934.958740 
	C413.313354,936.237305 394.542999,937.338135 375.821381,938.991333 
	C370.612610,939.451294 366.049500,938.840637 364.015076,934.089966 
	C361.843292,929.018677 357.791077,928.384216 353.639252,928.136414 
	C348.198425,927.811707 342.706390,928.380188 337.235229,928.520020 
	C331.441772,928.668152 325.537079,929.499695 319.886749,928.655396 
	C315.177521,927.951782 309.574646,926.388062 306.512299,923.166504 
	C302.309143,918.744873 298.496094,918.527588 293.766327,920.401062 
	C289.658203,922.028137 285.963501,921.793335 281.787567,920.252319 
	C265.415924,914.210571 248.901489,908.556396 232.452347,902.723694 
	C228.347153,901.268066 224.287659,899.683594 220.207169,898.158325 
	C220.249588,897.488159 220.292023,896.817993 220.334457,896.147888 
	C229.895874,898.668396 239.598846,902.588440 249.390152,894.402283 
	C241.511993,892.190186 235.754517,885.576416 227.572495,890.571716 
	C226.989273,890.927795 225.704132,890.381531 224.851471,890.010681 
	C215.714172,886.037415 206.554230,882.110901 197.499268,877.956299 
	C194.111740,876.402039 192.345367,877.276123 192.021622,880.797363 
	C191.772980,883.501709 190.332840,883.991211 188.011383,883.933716 
	C185.336121,883.867371 183.079666,884.036316 181.462631,880.866089 
	C180.391632,878.766479 177.696899,877.220337 175.403336,876.083679 
	C171.996979,874.395447 168.363815,873.084351 164.714447,871.988098 
	C160.448151,870.706665 159.181137,867.341675 158.838120,863.676758 
	C158.280304,857.716736 154.731430,854.214172 150.197067,850.738892 
	C148.787659,852.283936 147.796783,853.370239 146.449188,854.647705 
	C142.982941,854.297607 139.873413,853.756287 136.763901,853.214966 
	C136.763901,853.214966 136.853546,853.145203 136.859360,852.824402 
	C135.210098,848.882324 133.100235,845.393860 131.995193,841.611877 
	C129.738968,833.889954 123.709366,831.572327 116.915619,830.017761 
	C116.915619,830.017761 116.987823,830.015564 117.047867,829.773315 
	C116.791428,829.341187 116.474930,829.151245 116.158424,828.961365 
M668.317444,868.914612 
	C669.285156,867.723572 670.252808,866.532593 671.432373,865.080750 
	C661.825562,863.899292 660.925232,864.621460 660.644226,874.146240 
	C663.375305,872.334290 665.599487,870.858643 668.317444,868.914612 
z"/>
<path fill="#F9DAD7" opacity="1.000000" stroke="none" 
	d="
M532.972168,272.696716 
	C537.611023,270.136963 542.084351,267.199829 546.916504,265.080994 
	C571.440674,254.327408 596.058838,243.788208 620.640564,233.165817 
	C622.319214,232.440445 624.105530,231.854340 625.611206,230.855743 
	C639.935059,221.355652 656.810059,221.186417 672.813660,217.831726 
	C675.221619,217.326981 678.555359,217.533371 679.833374,216.028580 
	C683.895264,211.245850 688.830017,210.696426 694.611328,210.269974 
	C705.009888,209.502960 713.099060,205.919434 718.987732,200.867950 
	C713.041443,198.669830 707.394348,196.582306 700.440918,194.011871 
	C704.955872,190.237167 708.687744,186.913757 712.645813,183.886047 
	C714.941101,182.130249 716.032471,180.234451 714.776367,177.530350 
	C712.468079,172.561249 714.282654,169.780441 719.248169,168.317947 
	C720.959229,167.813950 722.523682,166.812454 725.405151,165.444992 
	C719.357117,159.660858 713.798950,154.382156 708.296814,149.045792 
	C707.410583,148.186279 706.135071,147.079758 706.119263,146.070511 
	C705.939453,134.581879 705.305176,123.032829 706.285461,111.628281 
	C706.654297,107.337662 710.897095,103.380035 713.674500,98.771576 
	C713.757263,98.863953 713.214417,98.019051 712.461487,97.454178 
	C702.277100,89.813705 695.205017,79.992416 692.091370,67.608475 
	C690.658630,61.910221 687.446533,60.855610 681.818787,60.485020 
	C656.327271,58.806385 632.006897,63.670086 607.717712,70.829605 
	C575.828186,80.229439 543.585693,88.429779 511.526672,97.261101 
	C508.874298,97.991753 506.242584,99.282249 503.978516,100.855537 
	C492.776031,108.640198 481.526062,116.377449 470.658478,124.613808 
	C465.714081,128.361053 460.936798,129.539566 454.955627,128.143021 
	C452.537994,127.578529 449.375092,128.063522 447.141632,129.215469 
	C436.201660,134.858017 425.460602,140.886215 414.149658,146.621277 
	C413.425446,146.239578 413.165649,146.067795 412.870789,145.949112 
	C416.079041,143.996643 419.228333,141.938187 422.507629,140.113358 
	C429.753967,136.080948 437.205872,132.398895 444.304565,128.126373 
	C449.562805,124.961586 454.720642,125.206886 460.312897,126.582878 
	C461.968048,126.990120 464.340088,126.542473 465.742798,125.566055 
	C472.343842,120.971138 478.679901,115.998077 485.191162,111.271049 
	C492.081329,106.268936 498.730438,100.796486 506.123535,96.675262 
	C510.860321,94.034798 516.747437,93.447029 522.129456,91.977966 
	C528.282532,90.298470 534.445129,88.653954 540.607666,87.009239 
	C546.928406,85.322289 553.260315,83.676498 559.576050,81.971169 
	C568.204895,79.641289 576.824463,77.276802 585.445557,74.918205 
	C591.439941,73.278221 597.427917,71.614708 603.422913,69.976822 
	C612.044922,67.621201 620.628540,65.107330 629.307312,62.982845 
	C637.072449,61.082031 644.878723,58.792286 652.785217,58.163521 
	C663.212463,57.334297 673.764404,58.212337 684.244629,57.844059 
	C688.901489,57.680416 691.331055,59.849201 692.844543,63.564751 
	C695.133728,69.184509 696.663208,75.165024 699.427124,80.521896 
	C701.249451,84.053970 704.566650,86.862137 707.406982,89.809006 
	C710.621704,93.144386 714.051697,96.272377 717.646057,99.739326 
	C716.494324,100.964096 715.875366,102.068756 714.936890,102.548454 
	C708.502686,105.837212 707.709229,111.443565 707.960327,117.872139 
	C708.265503,125.688446 708.360779,133.545944 707.887329,141.345596 
	C707.654236,145.185593 709.445068,147.108902 711.842224,149.393509 
	C717.314819,154.609100 722.537537,160.086823 728.319214,165.919540 
	C723.399109,168.540390 719.675598,170.523849 716.024109,172.468918 
	C718.270447,182.116501 717.802612,183.171051 709.340271,189.010834 
	C707.501831,190.279572 705.834778,191.796677 703.946594,193.313599 
	C710.404724,195.590271 716.357361,197.688721 723.294373,200.134201 
	C717.836365,205.633102 712.039368,208.191940 706.190247,209.823578 
	C700.543335,211.398819 694.432434,211.276077 688.548584,212.071396 
	C687.554932,212.205704 686.441711,213.022003 685.787415,213.844360 
	C681.858948,218.781799 676.545593,219.874893 670.602539,220.102783 
	C666.448608,220.262100 662.168640,220.842056 658.227905,222.112030 
	C648.754822,225.164932 638.623169,224.970978 629.663208,231.283585 
	C621.414917,237.094818 610.979553,239.804688 601.502075,243.867767 
	C587.562744,249.843689 573.567200,255.692245 559.694763,261.819550 
	C550.963074,265.676239 542.412537,269.943176 533.397156,273.722656 
	C532.999756,273.178406 532.985962,272.937561 532.972168,272.696716 
z"/>
<path fill="#F9D6D3" opacity="1.000000" stroke="none" 
	d="
M892.403503,743.045837 
	C893.960205,741.082031 895.791199,738.991760 897.820374,737.115784 
	C899.253052,735.791260 900.954407,734.757324 903.075195,733.196777 
	C898.271362,729.596313 894.286316,725.741638 899.239380,719.034302 
	C892.588318,719.314758 890.329346,716.193481 890.253052,710.828552 
	C890.199890,707.093018 888.036560,705.814087 884.322266,705.895691 
	C875.163391,706.097107 865.985840,706.206787 856.841309,705.791565 
	C854.484009,705.684509 852.223450,703.496399 849.914062,702.272522 
	C847.752197,701.126892 845.673035,699.237000 843.405579,698.971436 
	C824.269287,696.730225 806.781067,704.367798 788.709229,708.504028 
	C783.198242,709.765381 777.822571,711.735596 772.264038,712.627869 
	C768.906067,713.166870 765.318604,712.194397 761.828247,712.027222 
	C760.263977,711.952393 758.576050,711.856873 757.130005,712.333801 
	C746.856079,715.722900 736.637146,719.278198 726.381653,722.724182 
	C724.832764,723.244629 722.863708,724.234436 721.634216,723.715454 
	C711.288269,719.348755 700.910278,722.194092 690.587952,723.338196 
	C650.728699,727.756348 610.918701,732.644958 571.024231,736.708679 
	C552.326050,738.613342 533.459229,738.798218 514.701294,740.197021 
	C491.754517,741.908264 468.825104,742.970337 445.434509,740.791443 
	C445.039062,740.226807 445.050049,740.039612 445.061005,739.852478 
	C461.375153,739.908325 477.693909,740.222534 494.001862,739.930725 
	C505.155090,739.731201 516.294006,738.698425 527.437988,738.016724 
	C538.084045,737.365540 548.760681,737.009338 559.366211,735.947144 
	C576.827759,734.198425 594.230896,731.873352 611.681274,730.002808 
	C625.610840,728.509583 639.602722,727.575684 653.514587,725.946350 
	C668.141357,724.233337 682.659119,721.428650 697.316711,720.205811 
	C704.965698,719.567688 712.877808,718.297241 720.708069,721.543518 
	C723.208923,722.580322 727.244263,720.064392 730.531311,719.027649 
	C740.258057,715.959595 749.953125,712.791260 759.689392,709.754333 
	C760.532166,709.491516 761.981445,709.539246 762.477051,710.070007 
	C765.117188,712.897400 767.791565,711.984619 770.977173,711.067322 
	C780.016846,708.464600 789.196167,706.350403 798.301636,703.971558 
	C804.782471,702.278442 811.179626,700.225464 817.714966,698.793762 
	C822.277283,697.794312 826.996826,697.361938 831.670837,697.066833 
	C836.148987,696.784119 840.695190,696.671265 845.138916,697.152893 
	C847.202148,697.376465 849.982910,698.714294 850.868164,700.380981 
	C852.461487,703.381042 854.307556,704.133362 857.474487,704.058472 
	C866.294983,703.850037 875.123718,703.986938 883.949158,703.985657 
	C890.641174,703.984680 892.376343,705.552246 893.016296,712.259827 
	C893.110352,713.245728 893.029297,714.248291 893.029297,715.352783 
	C894.208374,715.849548 895.348206,716.722778 896.508545,716.751038 
	C901.697632,716.877319 901.756531,719.128967 899.624817,722.994568 
	C898.550110,724.943420 898.394409,726.790588 900.987854,728.661743 
	C906.549866,732.674683 906.269592,733.414612 900.502930,737.218628 
	C897.817688,738.989990 895.336304,741.070557 892.403503,743.045837 
z"/>
<path fill="#F9DBD8" opacity="1.000000" stroke="none" 
	d="
M146.805908,854.456482 
	C147.796783,853.370239 148.787659,852.283936 150.197067,850.738892 
	C154.731430,854.214172 158.280304,857.716736 158.838120,863.676758 
	C159.181137,867.341675 160.448151,870.706665 164.714447,871.988098 
	C168.363815,873.084351 171.996979,874.395447 175.403336,876.083679 
	C177.696899,877.220337 180.391632,878.766479 181.462631,880.866089 
	C183.079666,884.036316 185.336121,883.867371 188.011383,883.933716 
	C190.332840,883.991211 191.772980,883.501709 192.021622,880.797363 
	C192.345367,877.276123 194.111740,876.402039 197.499268,877.956299 
	C206.554230,882.110901 215.714172,886.037415 224.851471,890.010681 
	C225.704132,890.381531 226.989273,890.927795 227.572495,890.571716 
	C235.754517,885.576416 241.511993,892.190186 249.390152,894.402283 
	C239.598846,902.588440 229.895874,898.668396 220.334457,896.147888 
	C220.292023,896.817993 220.249588,897.488159 220.207169,898.158325 
	C224.287659,899.683594 228.347153,901.268066 232.452347,902.723694 
	C248.901489,908.556396 265.415924,914.210571 281.787567,920.252319 
	C285.963501,921.793335 289.658203,922.028137 293.766327,920.401062 
	C298.496094,918.527588 302.309143,918.744873 306.512299,923.166504 
	C309.574646,926.388062 315.177521,927.951782 319.886749,928.655396 
	C325.537079,929.499695 331.441772,928.668152 337.235229,928.520020 
	C342.706390,928.380188 348.198425,927.811707 353.639252,928.136414 
	C357.791077,928.384216 361.843292,929.018677 364.015076,934.089966 
	C366.049500,938.840637 370.612610,939.451294 375.821381,938.991333 
	C394.542999,937.338135 413.313354,936.237305 432.573761,935.225586 
	C433.108307,935.701599 433.134369,935.879700 433.160461,936.057861 
	C427.739288,936.717773 422.334808,937.643860 416.893646,937.984497 
	C403.937012,938.795471 390.962830,939.325073 377.996857,939.990356 
	C377.356781,940.023193 376.718842,940.234131 376.094299,940.412476 
	C369.798401,942.211182 364.103210,940.211914 361.258820,934.545776 
	C359.475861,930.994202 356.874146,929.782532 353.305542,930.040955 
	C345.005096,930.642151 336.671753,932.211670 328.429443,931.806824 
	C319.624329,931.374146 310.499207,930.960083 303.488403,923.455261 
	C301.709625,921.551086 295.955444,921.200989 293.409668,922.618469 
	C287.959778,925.652893 283.682983,922.983093 279.124390,921.575378 
	C271.737030,919.294128 264.444977,916.679871 257.193970,913.987366 
	C246.992813,910.199280 236.885178,906.159973 226.696045,902.338745 
	C223.482773,901.133667 220.136292,900.283752 216.478607,899.156616 
	C218.919617,894.129944 222.993210,892.954529 226.177628,895.210205 
	C232.719345,899.843811 238.655136,897.528381 246.154709,895.129333 
	C241.002625,893.162903 236.844986,891.573975 232.683243,889.995911 
	C232.538589,889.941040 232.282547,889.922058 232.196930,890.006470 
	C225.656189,896.454956 220.776337,889.088562 215.470749,887.575684 
	C208.280441,885.525330 201.565033,881.809631 194.618942,878.796570 
	C192.306686,886.168030 191.075119,886.988953 183.938980,886.010498 
	C183.180328,885.906555 181.913910,885.626465 181.809998,885.201477 
	C179.851135,877.188721 171.980438,877.292053 166.548477,874.415588 
	C157.738724,869.750427 157.266769,869.826904 156.831558,860.522217 
	C154.936356,860.088684 152.993744,859.644226 150.542679,859.083496 
	C151.605087,857.201538 152.343872,855.892883 153.082672,854.584167 
	C152.871445,854.245667 152.660233,853.907166 152.449020,853.568665 
	C150.874374,854.325500 149.299744,855.082336 147.330109,855.567017 
	C146.892044,855.015320 146.848984,854.735901 146.805908,854.456482 
z"/>
<path fill="#F9D8D5" opacity="1.000000" stroke="none" 
	d="
M139.632690,387.041229 
	C139.010696,388.899048 138.311127,391.050537 137.078064,392.833008 
	C112.586533,428.236755 91.102844,465.275238 75.566475,505.561188 
	C59.689156,546.731262 49.559364,589.146301 49.862766,633.472961 
	C49.950954,646.357788 52.719158,659.234070 54.402550,672.095459 
	C56.194901,685.789368 58.157635,699.460999 59.720299,713.587952 
	C59.217915,714.042480 59.041214,714.051331 58.864525,714.060120 
	C58.233147,712.648865 57.207611,711.283447 57.037506,709.818604 
	C56.231594,702.878967 55.813984,695.893188 54.958275,688.960815 
	C54.168816,682.565063 53.021503,676.212524 51.989170,669.847900 
	C51.034592,663.962708 49.531231,658.119324 49.138618,652.199890 
	C48.292465,639.442322 45.218803,626.808044 48.767544,613.804504 
	C50.711205,606.682434 50.091526,598.894592 51.068615,591.465027 
	C51.987919,584.474670 53.428513,577.549500 54.746052,570.615845 
	C56.085857,563.565063 57.305321,556.476379 59.044487,549.521118 
	C60.532162,543.571472 62.643250,537.774902 64.549812,531.933899 
	C65.966095,527.594971 67.515579,523.299805 68.971260,518.973511 
	C71.033348,512.845093 72.644585,506.525238 75.194473,500.608704 
	C80.576256,488.121124 86.042824,475.638336 92.222633,463.535522 
	C98.296280,451.640594 105.059158,440.075745 111.961044,428.632263 
	C117.870697,418.833923 124.378593,409.394928 130.675186,399.832062 
	C133.485016,395.564728 136.425507,391.383423 139.632690,387.041229 
z"/>
<path fill="#F9D6D3" opacity="1.000000" stroke="none" 
	d="
M744.929688,870.357788 
	C748.659424,870.159607 752.389221,869.961426 756.993347,869.716797 
	C752.061768,865.222351 747.878418,861.409912 743.505188,857.424377 
	C746.948120,853.324219 749.717468,850.143860 755.141968,852.369690 
	C756.807068,853.052979 759.121826,852.829285 760.950684,852.330200 
	C775.692871,848.307373 790.570129,844.652649 805.028503,839.767700 
	C812.799011,837.142395 819.663147,831.949646 827.236389,828.592346 
	C834.654663,825.303711 842.479065,822.939880 850.064087,820.011780 
	C851.585022,819.424622 853.369568,818.427673 854.113892,817.103394 
	C858.076843,810.052124 857.976074,809.992188 866.001038,810.990417 
	C868.105286,811.252197 870.206360,811.539734 872.665955,811.862183 
	C872.665955,810.587585 872.755676,809.636597 872.651245,808.707397 
	C872.012695,803.026917 873.418396,798.398438 878.301331,794.756348 
	C886.895874,788.345886 895.209351,781.558594 903.484924,775.051575 
	C901.626770,773.700378 897.204956,772.018005 897.083191,770.067200 
	C896.851807,766.360901 899.024414,762.481567 900.311584,758.712708 
	C901.001221,756.693420 901.926025,754.754456 903.165588,751.763916 
	C899.033508,751.763916 895.478638,751.995728 891.973328,751.678772 
	C889.797668,751.482056 887.697144,750.453308 885.562988,749.797974 
	C886.706299,747.952271 887.754700,746.036621 889.037537,744.293640 
	C889.585327,743.549377 890.622498,743.165344 891.757385,742.833313 
	C890.473083,744.873657 888.868652,746.698303 887.264282,748.523010 
	C887.299194,749.016724 887.334167,749.510437 887.369080,750.004150 
	C891.332336,750.004150 895.295593,750.000610 899.258850,750.005005 
	C905.947876,750.012329 905.996338,750.231812 903.196838,756.583496 
	C901.657532,760.075989 900.348389,763.708435 899.401367,767.397400 
	C899.151489,768.370483 900.395691,770.041687 901.368469,770.946655 
	C903.218384,772.667725 905.367371,774.067261 907.708862,775.840088 
	C902.813599,778.933228 898.348999,781.334839 894.365295,784.367981 
	C888.145020,789.103821 881.906860,793.926514 876.421875,799.452515 
	C874.716309,801.170715 875.181641,805.277527 875.080811,808.305115 
	C874.882874,814.248169 873.796021,815.117615 867.847290,813.476501 
	C867.078247,813.264282 866.183350,813.350952 865.503540,812.997681 
	C860.616089,810.457764 857.465149,812.456726 856.509338,817.222717 
	C855.169006,823.905518 849.041077,822.528809 845.306396,823.626831 
	C832.619934,827.356934 821.382263,833.754089 809.870056,839.875916 
	C804.354431,842.808899 797.978271,844.196899 791.903564,845.984436 
	C785.937927,847.740051 779.831787,849.012817 773.839600,850.684875 
	C767.183777,852.542053 760.914307,855.980286 753.499146,854.176758 
	C751.497742,853.690002 749.011780,855.195496 746.748230,855.786499 
	C746.665222,856.453979 746.582275,857.121460 746.499268,857.788879 
	C750.213867,860.571838 754.005432,863.261108 757.585999,866.206909 
	C758.427002,866.898804 759.153503,868.656128 758.852234,869.565247 
	C758.510376,870.596558 756.992371,871.854736 755.920105,871.919067 
	C751.602966,872.177795 747.260559,872.013550 742.464478,871.656494 
	C742.002136,870.935547 742.002869,870.563660 742.003662,870.191711 
	C742.465637,870.161377 742.927612,870.131042 743.815735,870.291260 
	C744.241882,870.481812 744.603088,870.546326 744.603088,870.546326 
	C744.603088,870.546326 744.929688,870.357849 744.929688,870.357788 
z"/>
<path fill="#F8D7D4" opacity="1.000000" stroke="none" 
	d="
M563.128845,936.516479 
	C563.954651,936.427063 564.966492,936.611023 565.572449,936.198608 
	C567.630554,934.798035 570.417908,933.542053 571.233032,931.540894 
	C571.862183,929.996155 569.948669,927.415894 568.989075,924.818115 
	C573.612427,924.818115 578.689819,924.818115 584.134766,924.818115 
	C583.813721,926.016296 583.466370,927.312683 582.957947,929.210144 
	C589.369019,928.543579 595.482300,927.907959 601.595642,927.272339 
	C601.610229,926.939697 601.624878,926.607056 601.639465,926.274414 
	C598.384277,925.499451 595.129150,924.724487 591.331482,923.820374 
	C596.218872,917.527405 601.944885,916.268433 608.608826,917.919556 
	C611.254150,918.575012 613.642944,919.097473 615.602783,916.178528 
	C616.118530,915.410339 618.873840,915.167847 619.803589,915.820129 
	C624.538452,919.142090 629.097290,919.018433 634.297180,916.816956 
	C639.116882,914.776428 644.316284,913.632751 649.304260,910.881470 
	C646.831116,910.881470 644.334351,910.661743 641.889343,910.924194 
	C635.498840,911.610046 630.221008,910.393677 627.925415,902.514771 
	C623.208740,907.309021 618.163452,908.299500 612.601379,906.270874 
	C611.706604,905.944458 610.399292,905.706421 610.070068,905.039062 
	C607.688904,900.212585 604.599854,902.015137 601.207581,903.820923 
	C602.309875,903.099304 603.593323,902.313904 604.986816,901.891541 
	C606.634216,901.392151 608.376648,901.206360 610.077881,900.884705 
	C612.972229,902.580627 615.870422,905.615784 618.759888,905.607422 
	C621.837708,905.598511 624.907288,902.710144 628.285339,900.917114 
	C628.729736,901.318359 629.668091,901.749573 629.852966,902.396240 
	C631.882568,909.494629 637.395264,909.276428 643.127075,909.045837 
	C648.324585,908.836792 653.537109,909.001648 658.743042,909.001648 
	C658.798889,909.508911 658.854736,910.016235 658.910522,910.523499 
	C656.968750,911.684570 655.161255,913.285828 653.060730,913.926819 
	C645.805176,916.141174 638.541504,918.607300 631.092346,919.801819 
	C626.811279,920.488342 622.166565,918.907349 616.724121,918.226868 
	C615.585999,919.895386 613.031616,920.747803 609.176270,920.218140 
	C604.710144,919.604492 600.036072,920.503845 595.452271,920.746277 
	C595.440491,921.452209 595.428772,922.158142 595.416992,922.864075 
	C601.611450,923.766357 607.805969,924.668640 614.000427,925.570984 
	C614.014648,926.132202 614.028809,926.693359 614.042969,927.254578 
	C610.055420,928.183594 606.106934,929.371765 602.071106,929.980225 
	C596.157532,930.871948 590.188965,931.443909 584.225037,931.913574 
	C583.150879,931.998230 581.470276,931.209961 580.996643,930.327209 
	C580.431152,929.273376 580.863342,927.684326 580.863342,926.161011 
	C578.564026,926.161011 575.636780,926.161011 572.733093,926.161011 
	C576.021240,933.307556 572.468872,938.071106 563.449707,937.690430 
	C563.106201,937.110901 563.134644,936.815308 563.128845,936.516479 
z"/>
<path fill="#F8D6D3" opacity="1.000000" stroke="none" 
	d="
M444.838226,739.475403 
	C445.050049,740.039612 445.039062,740.226807 445.013641,740.694946 
	C407.507385,739.657837 369.793671,741.154663 332.748016,733.801392 
	C318.460815,730.965454 304.560333,726.183838 290.480225,722.301025 
	C279.119629,719.168152 267.790100,715.912720 256.375885,712.988525 
	C250.324814,711.438293 245.623016,708.114380 241.831100,703.235229 
	C245.166214,705.218323 247.996841,708.183350 251.461700,709.647095 
	C256.279083,711.682251 261.579163,712.565918 266.659546,713.989136 
	C277.717072,717.086853 288.769775,720.201782 299.817291,723.335022 
	C305.157379,724.849548 310.441864,726.578369 315.822266,727.928040 
	C323.112701,729.756653 330.431091,731.524963 337.812042,732.926575 
	C344.639740,734.223083 351.538116,735.563232 358.453552,735.902832 
	C377.921234,736.858765 397.414520,737.287231 416.896149,737.968933 
	C426.137756,738.292297 435.375793,738.718628 444.838226,739.475403 
z"/>
<path fill="#FDEEEC" opacity="1.000000" stroke="none" 
	d="
M609.876709,900.523987 
	C608.376648,901.206360 606.634216,901.392151 604.986816,901.891541 
	C603.593323,902.313904 602.309875,903.099304 600.937988,904.090820 
	C600.898254,904.457581 600.881775,904.722412 600.466553,904.922852 
	C599.673645,906.350891 599.296082,907.578491 598.918457,908.806091 
	C598.918457,908.806091 598.965210,908.907715 598.595093,909.021362 
	C597.472839,910.725464 596.720703,912.315979 595.968628,913.906494 
	C595.968628,913.906494 595.918884,913.980530 595.640625,913.910278 
	C595.034241,913.799438 594.706177,913.800110 594.378235,913.842224 
	C594.378235,913.842224 594.206848,913.904907 594.062134,913.548889 
	C592.953552,913.099365 591.989746,913.005859 591.025940,912.912354 
	C579.318054,910.619507 567.610229,908.326660 554.356873,905.731201 
	C573.166077,902.343384 590.714172,899.182739 608.922363,896.082275 
	C610.014282,895.980042 610.445984,895.817566 610.877686,895.655029 
	C611.651794,895.453064 612.425903,895.251160 613.607605,895.307922 
	C614.041382,895.732605 614.067566,895.898621 614.093689,896.064575 
	C612.046814,896.707092 610.022644,897.439270 607.946167,897.964844 
	C606.163513,898.416077 604.321106,898.631104 602.585510,899.798035 
	C604.948853,899.919800 607.312195,900.041565 609.876709,900.523987 
z"/>
<path fill="#F8D6D3" opacity="1.000000" stroke="none" 
	d="
M741.600098,870.093811 
	C742.002869,870.563660 742.002136,870.935547 742.002197,871.586426 
	C733.624634,871.097229 725.246338,870.329102 716.868042,869.561035 
	C716.839722,869.011902 716.811340,868.462769 716.782959,867.913635 
	C718.425476,866.520325 720.067932,865.127014 721.912354,863.562439 
	C715.546387,862.663757 715.246033,862.860840 712.752136,868.714294 
	C711.481812,871.695862 709.919922,873.208679 706.380188,871.089783 
	C703.724548,869.500244 700.503479,868.855530 696.639221,867.468994 
	C698.936401,875.058228 694.877930,878.651550 689.129822,881.490051 
	C695.813477,882.341125 702.726624,880.664673 707.757629,885.330261 
	C705.769653,893.235413 699.813965,892.021790 694.289001,892.009888 
	C671.506592,891.960876 648.723999,891.982056 625.496826,891.710327 
	C625.112671,891.181458 625.144958,890.916199 625.148987,890.647461 
	C636.778992,890.531006 648.408813,890.365173 660.039124,890.311646 
	C672.678772,890.253479 685.321655,890.437744 697.955994,890.173096 
	C700.230835,890.125549 702.470886,888.417419 704.727051,887.475891 
	C704.597107,886.659485 704.467163,885.843018 704.337280,885.026550 
	C697.578369,884.261108 690.819458,883.495667 683.071228,882.618164 
	C685.186157,881.175720 686.501404,879.936340 688.061829,879.279785 
	C692.422485,877.445068 695.323975,874.960938 694.417786,869.592163 
	C693.908630,866.575867 696.087219,865.745911 698.532532,866.353149 
	C702.194702,867.262573 705.765869,868.538452 709.412231,869.669800 
	C714.409241,860.306824 714.409241,860.306824 724.440430,861.475769 
	C723.567932,863.622864 722.784058,865.551941 721.803467,867.965210 
	C728.168518,868.631714 734.682495,869.313843 741.600098,870.093811 
z"/>
<path fill="#FEB7B2" opacity="1.000000" stroke="none" 
	d="
M562.667175,936.382690 
	C563.134644,936.815308 563.106201,937.110901 563.023499,937.625488 
	C529.566772,937.908936 496.130127,937.988281 462.693542,937.961670 
	C461.412170,937.960632 460.019897,937.109619 458.874390,936.357483 
	C456.627777,934.882202 454.518829,933.197327 451.383698,930.883911 
	C451.577972,936.273804 448.672394,936.187622 445.544983,936.064026 
	C441.724152,935.912964 437.893066,936.020264 433.613464,936.036865 
	C433.134369,935.879700 433.108307,935.701599 433.041534,935.256592 
	C437.937317,934.564209 442.873779,934.138794 448.197968,933.679932 
	C448.197968,932.549988 448.197968,931.217224 448.197968,930.017151 
	C452.618652,928.110168 454.938660,931.303162 457.914917,932.929565 
	C460.518463,934.352356 463.492310,935.964783 466.314575,935.987183 
	C498.276886,936.242004 530.241516,936.206543 562.667175,936.382690 
z"/>
<path fill="#F9D8D5" opacity="1.000000" stroke="none" 
	d="
M412.502747,145.966461 
	C413.165649,146.067795 413.425446,146.239578 413.794952,146.649200 
	C403.407349,152.788544 393.181335,159.398300 382.254150,164.508911 
	C371.842560,169.378418 364.522278,177.024750 358.114655,186.030945 
	C357.634583,186.705643 357.102295,187.345245 356.651947,188.038635 
	C352.935577,193.760788 348.832428,197.887619 341.219635,199.438751 
	C334.600494,200.787445 328.754486,205.930542 322.244507,209.173492 
	C328.630432,201.531540 336.812744,196.972565 346.868286,195.929245 
	C347.902802,195.821930 349.229553,195.340210 349.812012,194.571182 
	C354.485443,188.400818 359.368225,182.343277 363.478699,175.805862 
	C367.178131,169.922256 373.084198,167.321365 378.589020,164.163681 
	C387.563202,159.015915 396.826508,154.372818 405.954346,149.491638 
	C408.042603,148.374924 410.076050,147.155807 412.502747,145.966461 
z"/>
<path fill="#F9DAD7" opacity="1.000000" stroke="none" 
	d="
M199.236542,626.036499 
	C203.415268,610.320984 207.717941,594.636353 211.664963,578.862793 
	C212.426361,575.820007 212.467316,572.242249 211.636215,569.245239 
	C210.595413,565.492004 211.295074,563.064148 214.033112,560.440857 
	C221.346466,553.433899 228.418655,546.175171 235.914307,539.158997 
	C233.304932,542.908203 230.536407,546.670349 227.388809,550.082825 
	C223.345108,554.466797 218.832764,558.424377 214.880569,562.883240 
	C213.699905,564.215271 212.640717,567.433533 213.366058,568.385254 
	C217.779541,574.177063 213.374207,579.515076 212.467178,584.645691 
	C210.967575,593.128174 207.489822,601.249695 205.030426,609.577820 
	C203.506821,614.737183 202.324661,619.997375 200.647980,625.618042 
	C199.949982,626.028015 199.593277,626.032288 199.236542,626.036499 
z"/>
<path fill="#F8D7D4" opacity="1.000000" stroke="none" 
	d="
M430.395386,330.940186 
	C431.463409,329.603302 432.614563,327.662292 434.317780,326.732086 
	C451.544952,317.323425 468.862366,308.080048 486.555786,299.065430 
	C486.989777,299.608368 487.022430,299.876129 487.055115,300.143890 
	C482.401978,302.766113 477.769653,305.426056 473.091736,308.003326 
	C460.141083,315.138458 447.176025,322.247559 434.200989,329.338257 
	C433.105499,329.936920 431.892914,330.321259 430.395386,330.940186 
z"/>
<path fill="#EF9791" opacity="1.000000" stroke="none" 
	d="
M78.837181,785.087708 
	C82.005272,790.024597 85.105095,794.598206 88.334114,799.362427 
	C80.844475,796.972778 63.270889,769.112244 64.861176,761.593872 
	C69.670357,769.592224 74.219635,777.158325 78.837181,785.087708 
z"/>
<path fill="#F9D8D5" opacity="1.000000" stroke="none" 
	d="
M237.621719,273.043884 
	C237.858353,273.614563 238.043396,274.551849 237.664078,274.945831 
	C224.661346,288.452362 211.605179,301.907410 198.238708,315.160889 
	C200.577255,311.488129 202.923508,307.722534 205.946686,304.615601 
	C216.271667,294.004456 226.834747,283.625061 237.621719,273.043884 
z"/>
<path fill="#F9D8D5" opacity="1.000000" stroke="none" 
	d="
M487.419952,300.085114 
	C487.022430,299.876129 486.989777,299.608368 486.903625,298.938538 
	C501.981995,289.974548 517.113770,281.412598 532.608887,272.773682 
	C532.985962,272.937561 532.999756,273.178406 533.032043,273.780640 
	C526.987610,277.773285 520.988220,281.516357 514.846619,285.009308 
	C505.879608,290.109222 496.810425,295.029510 487.419952,300.085114 
z"/>
<path fill="#F9D8D5" opacity="1.000000" stroke="none" 
	d="
M275.632446,237.046967 
	C275.883850,237.498825 276.027985,238.313278 275.696594,238.629730 
	C263.629059,250.152557 251.518723,261.630524 239.401703,273.101379 
	C239.178375,273.312775 238.803680,273.364319 238.215332,273.213257 
	C249.449905,261.609589 260.959290,250.273422 272.508820,238.978317 
	C273.285034,238.219193 274.364807,237.770462 275.632446,237.046967 
z"/>
<path fill="#F9D8D5" opacity="1.000000" stroke="none" 
	d="
M321.596497,208.954803 
	C321.240021,210.012543 320.716736,211.316055 319.781647,212.167221 
	C308.863220,222.105942 296.566925,229.709335 282.340210,233.994202 
	C281.077240,234.374588 279.865631,234.925568 278.274811,235.174866 
	C280.476166,233.563950 282.896027,231.767609 285.612732,230.856064 
	C298.929291,226.387939 310.096619,218.573456 320.326965,209.205414 
	C320.527893,209.021423 320.930084,209.057175 321.596497,208.954803 
z"/>
<path fill="#FDEEEC" opacity="1.000000" stroke="none" 
	d="
M199.099533,626.434448 
	C199.593277,626.032288 199.949982,626.028015 200.574265,626.019043 
	C200.564087,639.290161 200.159515,652.565735 200.137589,665.841858 
	C200.134064,667.972473 201.840317,670.105835 202.523361,672.592102 
	C201.932495,672.937744 201.574478,672.929260 201.216461,672.920776 
	C200.145554,670.091370 198.251022,667.290833 198.150940,664.427551 
	C197.781143,653.848328 197.956741,643.247864 198.047806,632.656494 
	C198.064514,630.712585 198.643219,628.773621 199.099533,626.434448 
z"/>
<path fill="#F8D7D4" opacity="1.000000" stroke="none" 
	d="
M368.403015,381.043915 
	C368.053619,380.644562 367.889923,379.963501 368.111145,379.798492 
	C378.544800,372.016174 389.011902,364.278687 399.773499,356.798218 
	C394.490082,361.705963 389.034821,366.515564 383.286957,370.945557 
	C378.629913,374.534851 373.621033,377.667664 368.403015,381.043915 
z"/>
<path fill="#F8D6D3" opacity="1.000000" stroke="none" 
	d="
M241.961792,702.626099 
	C241.945389,703.046814 241.733459,703.261780 241.699127,703.236328 
	C231.288986,695.546143 218.100113,691.966309 209.807205,681.224365 
	C214.986038,684.381958 219.853989,687.923462 224.868088,691.244263 
	C226.658249,692.429871 228.980042,692.821106 230.748154,694.029968 
	C234.555481,696.632812 238.161072,699.530823 241.961792,702.626099 
z"/>
<path fill="#F9D6D3" opacity="1.000000" stroke="none" 
	d="
M58.937515,714.513306 
	C59.041214,714.051331 59.217915,714.042480 59.659855,714.024841 
	C61.252632,724.716492 62.580170,735.416870 63.875538,746.548706 
	C62.887939,743.876648 61.467819,740.831238 61.069958,737.657776 
	C60.125751,730.126343 59.666035,722.534119 58.937515,714.513306 
z"/>
<path fill="#F9DAD7" opacity="1.000000" stroke="none" 
	d="
M238.678040,537.295654 
	C239.942398,533.990723 239.116959,531.131104 237.876480,527.803650 
	C235.356750,521.044739 235.914429,514.414185 241.888672,509.160583 
	C239.269714,514.014465 238.470688,519.193542 239.066650,524.619629 
	C239.217133,525.989685 239.556549,527.461304 240.247253,528.626526 
	C242.212387,531.941589 242.415314,534.858032 238.678040,537.295654 
z"/>
<path fill="#F8D6D3" opacity="1.000000" stroke="none" 
	d="
M117.024261,830.362183 
	C123.709366,831.572327 129.738968,833.889954 131.995193,841.611877 
	C133.100235,845.393860 135.210098,848.882324 136.847046,852.879883 
	C134.932388,850.357727 132.217072,847.693176 131.308456,844.512634 
	C129.369110,837.724060 124.628120,834.366516 118.676552,831.905151 
	C118.096069,831.665039 117.644371,831.113525 117.024261,830.362183 
z"/>
<path fill="#F8D7D4" opacity="1.000000" stroke="none" 
	d="
M342.368713,400.961060 
	C344.001465,398.470123 345.483856,395.231750 347.990906,393.382721 
	C354.220398,388.788300 360.917175,384.827545 367.752075,380.830261 
	C363.477173,384.453522 358.812683,387.776855 354.295044,391.289032 
	C350.339233,394.364410 346.548401,397.652039 342.368713,400.961060 
z"/>
<path fill="#F9D8D5" opacity="1.000000" stroke="none" 
	d="
M157.649811,363.036041 
	C157.505814,364.054810 157.256271,365.355377 156.541977,366.307129 
	C151.277664,373.321716 145.920624,380.266693 140.252899,387.101379 
	C142.261002,383.416809 144.467026,379.759705 146.992096,376.337982 
	C150.306198,371.847015 153.871704,367.541565 157.649811,363.036041 
z"/>
<path fill="#F8D7D4" opacity="1.000000" stroke="none" 
	d="
M322.375916,422.957550 
	C322.041351,422.516724 321.771820,421.733093 322.039062,421.441650 
	C327.794800,415.164551 333.610504,408.942444 339.749084,402.873749 
	C334.286041,409.639862 328.488525,416.241943 322.375916,422.957550 
z"/>
<path fill="#F8D7D4" opacity="1.000000" stroke="none" 
	d="
M412.387146,346.949463 
	C412.068176,346.520264 411.839661,345.698608 412.116608,345.457397 
	C417.868591,340.448273 423.677887,335.505005 429.774139,330.803955 
	C424.285950,336.315247 418.499481,341.571289 412.387146,346.949463 
z"/>
<path fill="#F8D7D4" opacity="1.000000" stroke="none" 
	d="
M308.371826,438.960999 
	C309.095154,437.256805 309.883759,435.223846 311.223602,433.664429 
	C314.506836,429.843079 318.044434,426.240234 321.776031,422.804504 
	C317.610870,428.322266 313.149384,433.584991 308.371826,438.960999 
z"/>
<path fill="#F9DAD7" opacity="1.000000" stroke="none" 
	d="
M248.393311,505.042358 
	C248.331116,504.435913 248.470673,503.592957 248.967529,503.160370 
	C253.745087,499.001007 258.582855,494.910797 263.745819,490.912964 
	C261.760529,498.733612 254.860840,501.426239 248.393311,505.042358 
z"/>
<path fill="#F8D7D4" opacity="1.000000" stroke="none" 
	d="
M294.354919,454.965851 
	C297.826477,450.318054 301.614624,445.553864 305.744904,440.908539 
	C302.281830,445.634735 298.476685,450.242065 294.354919,454.965851 
z"/>
<path fill="#FEB7B2" opacity="1.000000" stroke="none" 
	d="
M103.980721,821.891113 
	C105.081268,823.329712 105.935631,824.489441 106.789993,825.649109 
	C106.628288,825.940002 106.466583,826.230835 106.304886,826.521729 
	C103.872643,825.119934 101.245209,823.947510 99.142532,822.158447 
	C98.602760,821.699097 99.718277,819.294495 100.278458,816.910645 
	C101.948082,819.182007 102.841309,820.397095 103.980721,821.891113 
z"/>
<path fill="#F8D7D4" opacity="1.000000" stroke="none" 
	d="
M400.385437,356.947571 
	C403.866211,353.558411 407.675171,350.042175 411.777466,346.794067 
	C408.285095,350.314972 404.499359,353.567749 400.385437,356.947571 
z"/>
<path fill="#F9D8D5" opacity="1.000000" stroke="none" 
	d="
M183.638092,331.036865 
	C180.834656,335.014954 177.715363,339.109375 174.254135,343.088745 
	C177.048889,339.033508 180.185562,335.093323 183.638092,331.036865 
z"/>
<path fill="#F9DAD7" opacity="1.000000" stroke="none" 
	d="
M274.368225,478.959442 
	C277.179260,474.938629 280.306427,470.800751 283.757812,466.853149 
	C280.949463,470.976379 277.816895,474.909393 274.368225,478.959442 
z"/>
<path fill="#F9D8D5" opacity="1.000000" stroke="none" 
	d="
M173.646912,343.033569 
	C170.809296,347.107422 167.653641,351.297882 164.214325,355.212128 
	C167.063385,351.007324 170.196121,347.078735 173.646912,343.033569 
z"/>
<path fill="#F9DAD7" opacity="1.000000" stroke="none" 
	d="
M264.351013,490.965698 
	C267.172485,486.927765 270.311432,482.771545 273.764587,478.832275 
	C270.942017,482.981995 267.805267,486.914703 264.351013,490.965698 
z"/>
<path fill="#FEB7B2" opacity="1.000000" stroke="none" 
	d="
M624.801147,890.580322 
	C625.144958,890.916199 625.112671,891.181458 625.033325,891.643433 
	C622.741028,895.836365 619.167297,896.699158 614.523926,896.043823 
	C614.067566,895.898621 614.041382,895.732605 614.009155,895.314636 
	C617.486572,893.546204 620.969910,892.029724 624.801147,890.580322 
z"/>
<path fill="#F8D6D3" opacity="1.000000" stroke="none" 
	d="
M146.449188,854.647705 
	C146.848984,854.735901 146.892044,855.015320 146.990723,855.715088 
	C146.513641,856.727783 145.747650,857.922302 145.483994,857.820190 
	C142.477936,856.655640 139.548492,855.293335 136.681244,853.599426 
	C139.873413,853.756287 142.982941,854.297607 146.449188,854.647705 
z"/>
<path fill="#F9D8D5" opacity="1.000000" stroke="none" 
	d="
M195.612946,317.048767 
	C193.424591,320.284790 190.920486,323.632538 188.088074,326.839905 
	C190.272232,323.519867 192.784729,320.340210 195.612946,317.048767 
z"/>
<path fill="#F8D7D4" opacity="1.000000" stroke="none" 
	d="
M285.640991,463.847717 
	C288.230133,460.818298 290.819244,457.788910 293.747131,454.895630 
	C291.980103,457.958588 289.874298,460.885406 287.077271,463.884094 
	C286.137726,463.919922 285.889374,463.883820 285.640991,463.847717 
z"/>
<path fill="#F9D8D5" opacity="1.000000" stroke="none" 
	d="
M163.613297,355.047028 
	C162.158310,357.673706 160.383743,360.413666 158.260040,363.067261 
	C159.705170,360.374023 161.499451,357.767181 163.613297,355.047028 
z"/>
<path fill="#F8D6D3" opacity="1.000000" stroke="none" 
	d="
M209.961685,680.625000 
	C207.923019,679.149719 205.775391,677.361938 203.837997,675.247681 
	C205.983063,676.718384 207.917892,678.515442 209.961685,680.625000 
z"/>
<path fill="#F9DAD7" opacity="1.000000" stroke="none" 
	d="
M242.644470,509.333374 
	C243.997574,507.726898 245.696884,506.207245 247.739471,504.862061 
	C246.385406,506.497711 244.688049,507.958954 242.644470,509.333374 
z"/>
<path fill="#F9D8D5" opacity="1.000000" stroke="none" 
	d="
M187.351685,326.665161 
	C186.658218,328.279663 185.625153,329.802826 184.254700,331.142334 
	C184.948898,329.497040 185.980499,328.035431 187.351685,326.665161 
z"/>
<path fill="#F9DAD7" opacity="1.000000" stroke="none" 
	d="
M285.348022,464.029938 
	C285.889374,463.883820 286.137726,463.919922 286.759613,464.002777 
	C286.306732,464.988922 285.480316,465.928284 284.355774,466.969238 
	C284.390106,466.117950 284.722565,465.165070 285.348022,464.029938 
z"/>
<path fill="#F8D6D3" opacity="1.000000" stroke="none" 
	d="
M201.371033,673.233398 
	C201.574478,672.929260 201.932495,672.937744 202.558868,672.961670 
	C203.181839,673.443298 203.536484,673.909546 203.982239,674.660339 
	C203.224106,674.478516 202.374863,674.012268 201.371033,673.233398 
z"/>
<path fill="#F9DAD7" opacity="1.000000" stroke="none" 
	d="
M236.627380,539.362732 
	C236.711563,538.509888 237.132812,537.759949 237.904724,537.156128 
	C237.825058,538.023376 237.394760,538.744446 236.627380,539.362732 
z"/>
<path fill="#F8D7D4" opacity="1.000000" stroke="none" 
	d="
M340.318237,402.993103 
	C340.472290,402.288757 340.914673,401.489838 341.721191,400.865143 
	C341.592377,401.659088 341.099457,402.278809 340.318237,402.993103 
z"/>
<path fill="#F8D7D4" opacity="1.000000" stroke="none" 
	d="
M306.314453,440.994507 
	C306.473267,440.280701 306.920959,439.473816 307.726257,438.854797 
	C307.590363,439.662231 307.096863,440.281830 306.314453,440.994507 
z"/>
<path fill="#F9D8D5" opacity="1.000000" stroke="none" 
	d="
M277.669037,235.010773 
	C277.529541,235.698746 277.102448,236.480835 276.294006,237.115967 
	C276.402252,236.347641 276.891846,235.726273 277.669037,235.010773 
z"/>
<path fill="#F9D8D5" opacity="1.000000" stroke="none" 
	d="
M197.676056,315.006165 
	C197.513535,315.759338 197.063950,316.604858 196.268494,317.197266 
	C196.411407,316.328888 196.900192,315.713715 197.676056,315.006165 
z"/>
<path fill="#F8D6D3" opacity="1.000000" stroke="none" 
	d="
M116.115013,829.239197 
	C116.474930,829.151245 116.791428,829.341187 117.047806,829.809448 
	C116.682327,829.897583 116.376961,829.707336 116.115013,829.239197 
z"/>
<path fill="#FDEEEC" opacity="1.000000" stroke="none" 
	d="
M668.070557,869.148804 
	C665.599487,870.858643 663.375305,872.334290 660.644226,874.146240 
	C660.925232,864.621460 661.825562,863.899292 671.432373,865.080750 
	C670.252808,866.532593 669.285156,867.723572 668.070557,869.148804 
z"/>
<path fill="#F8D7D4" opacity="1.000000" stroke="none" 
	d="
M596.309570,913.894470 
	C596.720703,912.315979 597.472839,910.725464 598.542847,909.041260 
	C598.123962,910.592529 597.387268,912.237488 596.309570,913.894470 
z"/>
<path fill="#F8D7D4" opacity="1.000000" stroke="none" 
	d="
M591.292725,913.106323 
	C591.989746,913.005859 592.953552,913.099365 594.004150,913.478333 
	C593.247192,913.609314 592.403320,913.454773 591.292725,913.106323 
z"/>
<path fill="#F8D7D4" opacity="1.000000" stroke="none" 
	d="
M599.140015,908.589233 
	C599.296082,907.578491 599.673645,906.350891 600.359497,905.001160 
	C600.232300,906.043518 599.796936,907.207947 599.140015,908.589233 
z"/>
<path fill="#F8D7D4" opacity="1.000000" stroke="none" 
	d="
M594.479248,913.979431 
	C594.706177,913.800110 595.034241,913.799438 595.604736,913.883911 
	C595.424805,913.990662 595.002563,914.053650 594.479248,913.979431 
z"/>
<path fill="#FEB7B2" opacity="1.000000" stroke="none" 
	d="
M610.655029,895.568481 
	C610.445984,895.817566 610.014282,895.980042 609.352783,896.074463 
	C609.559509,895.831543 609.995972,895.656677 610.655029,895.568481 
z"/>
<path fill="#F8D6D3" opacity="1.000000" stroke="none" 
	d="
M744.715454,870.287476 
	C744.929688,870.357849 744.603088,870.546326 744.603088,870.546326 
	C744.603088,870.546326 744.241882,870.481812 744.150085,870.391724 
	C744.058289,870.301636 744.501282,870.217041 744.715454,870.287476 
z"/>
</svg>